<svg width="40" height="41" viewBox="0 0 40 41" fill="none" xmlns="http://www.w3.org/2000/svg">
<g id="FileMagnifyingGlass">
<path id="Vector" d="M31.25 35.2856H8.75C8.41848 35.2856 8.10054 35.1539 7.86612 34.9195C7.6317 34.6851 7.5 34.3672 7.5 34.0356V6.53564C7.5 6.20412 7.6317 5.88618 7.86612 5.65176C8.10054 5.41734 8.41848 5.28564 8.75 5.28564H23.75L32.5 14.0356V34.0356C32.5 34.3672 32.3683 34.6851 32.1339 34.9195C31.8995 35.1539 31.5815 35.2856 31.25 35.2856Z" stroke="#309E66" stroke-width="2" stroke-linecap="round" stroke-linejoin="round"/>
<path id="Vector_2" d="M23.75 5.28564V14.0356H32.5" stroke="#309E66" stroke-width="2" stroke-linecap="round" stroke-linejoin="round"/>
<path id="Vector_3" d="M19.375 27.7856C21.7912 27.7856 23.75 25.8269 23.75 23.4106C23.75 20.9944 21.7912 19.0356 19.375 19.0356C16.9588 19.0356 15 20.9944 15 23.4106C15 25.8269 16.9588 27.7856 19.375 27.7856Z" stroke="#309E66" stroke-width="2" stroke-linecap="round" stroke-linejoin="round"/>
<path id="Vector_4" d="M22.4688 26.5044L25 29.0356" stroke="#309E66" stroke-width="2" stroke-linecap="round" stroke-linejoin="round"/>
</g>
</svg>
