<svg width="32" height="33" viewBox="0 0 32 33" fill="none" xmlns="http://www.w3.org/2000/svg">
<g id="Funnel">
<path id="Vector" d="M4.26381 7.95814C4.13369 7.81494 4.04791 7.63707 4.01686 7.44608C3.98582 7.2551 4.01085 7.05921 4.08892 6.88217C4.16698 6.70513 4.29474 6.55454 4.45669 6.44865C4.61863 6.34277 4.80782 6.28615 5.00131 6.28564H27.0013C27.195 6.28566 27.3845 6.34194 27.5469 6.44763C27.7092 6.55333 27.8373 6.70389 27.9157 6.88103C27.9941 7.05817 28.0193 7.25425 27.9884 7.44547C27.9574 7.63668 27.8716 7.81479 27.7413 7.95814L19.0013 17.2856V24.6169C19.0014 24.7816 18.9609 24.9437 18.8832 25.089C18.8056 25.2342 18.6933 25.358 18.5563 25.4494L14.5563 28.1156C14.4059 28.216 14.231 28.2737 14.0503 28.2826C13.8697 28.2915 13.69 28.2512 13.5304 28.166C13.3709 28.0808 13.2374 27.954 13.1442 27.7989C13.051 27.6439 13.0016 27.4665 13.0013 27.2856V17.2856L4.26381 7.95814Z" stroke="#309E66" stroke-width="2" stroke-linecap="round" stroke-linejoin="round"/>
</g>
</svg>
