<svg width="48" height="48" viewBox="0 0 48 48" fill="none" xmlns="http://www.w3.org/2000/svg">
<path id="Vector" fill-rule="evenodd" clip-rule="evenodd" d="M12 0H36C42.6274 0 48 5.37258 48 12V36C48 42.6274 42.6274 48 36 48H12C5.37258 48 0 42.6274 0 36V12C0 5.37258 5.37258 0 12 0ZM42 35V13C42 10.7909 40.2091 9 38 9C35.7909 9 34 10.7909 34 13V35C34 37.2091 35.7909 39 38 39C40.2091 39 42 37.2091 42 35ZM13.9998 35L13.9998 13C13.9998 10.7909 12.209 9 9.99985 9C7.79071 9 5.99985 10.7909 5.99985 13L5.99985 35C5.99985 37.2091 7.79071 39 9.99985 39C12.209 39 13.9998 37.2091 13.9998 35ZM28.0002 17V10C28.0002 7.79086 26.2093 6 24.0002 6C21.791 6 20.0002 7.79086 20.0002 10V17C20.0002 19.2091 21.791 21 24.0002 21C26.2093 21 28.0002 19.2091 28.0002 17ZM28.0002 38V31C28.0002 28.7909 26.2093 27 24.0002 27C21.791 27 20.0002 28.7909 20.0002 31V38C20.0002 40.2091 21.791 42 24.0002 42C26.2093 42 28.0002 40.2091 28.0002 38Z" fill="url(#paint0_linear_3908_36411)"/>
<defs>
<linearGradient id="paint0_linear_3908_36411" x1="52.32" y1="-12.6" x2="-1.92" y2="64.8" gradientUnits="userSpaceOnUse">
<stop stop-color="#5AEFAD"/>
<stop offset="0.5" stop-color="#289162"/>
<stop offset="1" stop-color="#2D6A4F"/>
</linearGradient>
</defs>
</svg>
