<svg width="24" height="25" viewBox="0 0 24 25" fill="none" xmlns="http://www.w3.org/2000/svg">
<g id="QrCode" clip-path="url(#clip0_4239_621)">
<path id="Vector" d="M9.75 4.78564H5.25C4.83579 4.78564 4.5 5.12143 4.5 5.53564V10.0356C4.5 10.4499 4.83579 10.7856 5.25 10.7856H9.75C10.1642 10.7856 10.5 10.4499 10.5 10.0356V5.53564C10.5 5.12143 10.1642 4.78564 9.75 4.78564Z" stroke="#156350" stroke-width="2" stroke-linecap="round" stroke-linejoin="round"/>
<path id="Vector_2" d="M9.75 13.7856H5.25C4.83579 13.7856 4.5 14.1214 4.5 14.5356V19.0356C4.5 19.4499 4.83579 19.7856 5.25 19.7856H9.75C10.1642 19.7856 10.5 19.4499 10.5 19.0356V14.5356C10.5 14.1214 10.1642 13.7856 9.75 13.7856Z" stroke="#156350" stroke-width="2" stroke-linecap="round" stroke-linejoin="round"/>
<path id="Vector_3" d="M18.75 4.78564H14.25C13.8358 4.78564 13.5 5.12143 13.5 5.53564V10.0356C13.5 10.4499 13.8358 10.7856 14.25 10.7856H18.75C19.1642 10.7856 19.5 10.4499 19.5 10.0356V5.53564C19.5 5.12143 19.1642 4.78564 18.75 4.78564Z" stroke="#156350" stroke-width="2" stroke-linecap="round" stroke-linejoin="round"/>
<path id="Vector_4" d="M13.5 13.7856V16.7856" stroke="#156350" stroke-width="2" stroke-linecap="round" stroke-linejoin="round"/>
<path id="Vector_5" d="M13.5 19.7856H16.5V13.7856" stroke="#156350" stroke-width="2" stroke-linecap="round" stroke-linejoin="round"/>
<path id="Vector_6" d="M16.5 15.2856H19.5" stroke="#156350" stroke-width="2" stroke-linecap="round" stroke-linejoin="round"/>
<path id="Vector_7" d="M19.5 18.2856V19.7856" stroke="#156350" stroke-width="2" stroke-linecap="round" stroke-linejoin="round"/>
</g>
<defs>
<clipPath id="clip0_4239_621">
<rect width="24" height="24" fill="white" transform="translate(0 0.285645)"/>
</clipPath>
</defs>
</svg>
