<svg width="164" height="49" viewBox="0 0 164 49" fill="none" xmlns="http://www.w3.org/2000/svg">
<g id="Frame 1321315289">
<path id="Vector" d="M11.9273 0.285156C5.34671 0.285156 0 5.66447 0 12.2852V36.2852C0 42.9058 5.34671 48.2852 11.9273 48.2852H35.7818C42.3624 48.2852 47.7091 42.9058 47.7091 36.2852V0.285156H11.9273Z" fill="#B0ED52"/>
<path id="Vector_2" d="M13.0048 19.4746C12.5935 17.7677 14.3415 16.216 16.5008 16.216C18.5058 16.216 20.4594 16.6815 21.2305 19.4229H23.7497V23.6643C20.6136 21.0781 13.776 22.7333 13.0048 19.4746ZM39.4299 18.285H33.7233L28.2738 24.285V12.285H23.8525V15.1815C23.6982 14.9746 23.544 14.8195 23.3897 14.6126C21.796 12.9057 19.4826 12.0264 16.5008 12.0264C13.0563 12.0264 11.1026 13.5781 10.0744 14.8712C8.78914 16.4746 8.22363 18.647 8.63491 20.4574C9.66312 25.0608 13.9302 25.8367 17.0663 26.2505C19.534 26.5608 21.8988 27.0264 21.8474 29.2505C21.796 31.5264 19.2255 32.0953 17.529 32.0953C13.1077 32.0953 12.9534 28.8367 12.9534 28.8367H8.22363C8.27504 30.0781 8.68632 32.0436 10.1772 33.7505C11.8224 35.6126 14.2901 36.5436 17.529 36.5436C19.9967 36.5436 22.2587 35.716 23.9038 34.2677V36.2333H28.3252V30.5953L29.8675 28.8884L34.3402 36.285H39.4813L33.0036 25.4746L39.4299 18.285Z" fill="#4D5759"/>
<path id="Vector_3" d="M58.969 33.2853C59.2774 33.3887 59.6373 33.4404 59.9972 33.4404C60.5113 33.4404 60.8711 33.2853 61.1796 32.9749C61.488 32.6646 61.6937 32.3025 61.7966 31.837L55.5244 18.4404H59.6887L63.6987 28.0611L67.2461 18.4404H71.2561L65.601 31.6301C64.8812 33.3887 64.11 34.6818 63.236 35.5094C62.4134 36.337 61.4881 36.8025 60.4599 36.8025C60.1 36.8025 59.8429 36.8025 59.6373 36.7508C59.3802 36.7508 59.1746 36.699 59.0204 36.6473L58.5577 36.4921C58.4548 36.4404 58.3006 36.3887 58.1978 36.3887V33.0266C58.352 33.0784 58.6091 33.1818 58.969 33.2853Z" fill="white"/>
<path id="Vector_4" d="M78.0425 31.2681C77.7854 31.3198 77.5284 31.3715 77.2199 31.475C76.9115 31.5267 76.603 31.5784 76.2945 31.5784C75.986 31.6302 75.6262 31.6302 75.3691 31.6302C74.598 31.6302 73.981 31.5784 73.3641 31.4233C72.7986 31.2681 72.2845 31.0612 71.9246 30.7508C71.5133 30.4405 71.2563 30.0784 71.0506 29.5612C70.845 29.0957 70.7422 28.475 70.7422 27.8026V23.0439H74.1353V27.1302C74.1353 27.4922 74.1867 27.8026 74.2895 28.0612C74.3409 28.3198 74.4951 28.5267 74.7008 28.6819C74.9064 28.8371 75.1121 28.9405 75.4205 28.9922C75.729 29.0439 76.0889 29.0439 76.4488 29.0439C77.0657 29.0439 77.4769 28.9922 77.8368 28.8888C78.1967 28.7853 78.4537 28.6302 78.6594 28.5267V23.0439H82.0525V36.2853H78.6594V31.1129C78.5051 31.1129 78.2995 31.2164 78.0425 31.2681Z" fill="white"/>
<path id="Vector_5" d="M91.1501 30.13C90.9445 30.2334 90.636 30.3368 90.3276 30.3886L89.4021 30.5437C88.9909 30.5955 88.6824 30.6989 88.3739 30.8024C88.0655 30.9058 87.8084 31.0093 87.6542 31.1644C87.4485 31.3196 87.2943 31.5265 87.1915 31.7851C87.0887 31.992 87.0373 32.3024 87.0373 32.6127C87.0373 32.8713 87.0886 33.1299 87.1401 33.3368C87.2429 33.5437 87.3457 33.6989 87.5514 33.8541C87.7056 33.9575 87.8598 34.1127 88.0655 34.1644C88.2711 34.2162 88.5282 34.2679 88.7338 34.2679C88.8367 34.2679 89.0423 34.2679 89.2479 34.2162C89.4536 34.2162 89.6592 34.1644 89.9162 34.061C90.1219 33.9575 90.379 33.8541 90.5846 33.6989C90.7903 33.5955 90.9959 33.3886 91.2015 33.1299C91.4072 32.923 91.5614 32.6127 91.6642 32.3024C91.767 31.992 91.8185 31.63 91.8185 31.1644V29.8196C91.5614 29.9748 91.3558 30.0782 91.1501 30.13ZM95.263 34.6817C95.263 34.9403 95.3658 35.1472 95.4172 35.3024C95.4686 35.4575 95.5715 35.561 95.6743 35.6644C95.7771 35.7162 95.8285 35.7679 95.9827 35.8196V36.3886H92.1783L91.9727 35.7679C91.8699 35.5093 91.8699 35.1989 91.8699 34.8368L91.0987 35.6127C90.8417 35.8196 90.5332 36.0265 90.2247 36.2334C89.9162 36.4403 89.5564 36.5437 89.1451 36.6472C88.7338 36.7506 88.2197 36.8024 87.6542 36.8024C87.0372 36.8024 86.5232 36.7506 86.009 36.5437C85.4949 36.3886 85.0837 36.0782 84.7238 35.7679C84.3639 35.4058 84.0555 34.992 83.9012 34.4748C83.6956 33.9575 83.5928 33.3886 83.5928 32.7162C83.5928 32.1472 83.6442 31.6817 83.8498 31.2162C84.0041 30.7506 84.2611 30.3368 84.5695 29.9748C84.878 29.6127 85.2379 29.3024 85.7006 29.0955C86.1633 28.8368 86.626 28.6817 87.1915 28.6299L90.5332 28.1127C90.636 28.1127 90.7902 28.1127 90.9445 28.061C91.0987 28.061 91.2015 28.0093 91.3558 27.9058C91.4586 27.8541 91.5614 27.7506 91.6642 27.5955C91.7156 27.4403 91.767 27.2851 91.767 27.0265C91.767 26.8196 91.7156 26.6127 91.6642 26.4058C91.6128 26.1989 91.4586 26.0437 91.3044 25.9403C91.1501 25.7851 90.9445 25.6817 90.636 25.6299C90.379 25.5782 90.0191 25.5265 89.6078 25.5265C89.1451 25.5265 88.7852 25.5782 88.5282 25.6299C88.2197 25.7334 88.0141 25.8886 87.8598 26.0437C87.7056 26.1989 87.5514 26.4058 87.5 26.6127L87.3457 27.3368H83.9526C83.9526 27.1817 83.9526 26.9748 84.004 26.6644C84.0554 26.4058 84.1582 26.0437 84.3125 25.7334C84.4153 25.4231 84.6724 25.061 84.9294 24.6989C85.1865 24.3368 85.495 24.0265 85.9577 23.7162C86.3689 23.4575 86.8831 23.1989 87.4486 23.0437C88.0655 22.8886 88.7338 22.7851 89.5564 22.7334C90.7388 22.7334 91.6642 22.8368 92.4354 23.0955C93.1551 23.3541 93.7207 23.6644 94.132 24.0265C94.5432 24.4403 94.8003 24.8541 94.9545 25.3196C95.0573 25.7851 95.1602 26.2506 95.1602 26.7162V33.6989C95.2116 34.1127 95.2116 34.423 95.263 34.6817Z" fill="white"/>
<path id="Vector_6" d="M104.827 26.8196C104.724 26.561 104.57 26.3024 104.415 26.1472C104.21 25.9403 104.004 25.8368 103.747 25.7334C103.49 25.6817 103.13 25.6299 102.77 25.6299C102.205 25.6299 101.742 25.7334 101.433 26.0437C101.074 26.3024 100.817 26.6644 100.662 27.0265C100.457 27.4403 100.354 27.9058 100.302 28.3713C100.251 28.8368 100.2 29.3024 100.2 29.7162C100.2 30.1299 100.2 30.5955 100.251 31.061C100.302 31.5782 100.405 31.992 100.611 32.4058C100.765 32.8196 101.022 33.1299 101.382 33.3886C101.742 33.6472 102.205 33.8024 102.77 33.8024C103.181 33.8024 103.49 33.7506 103.798 33.5437C104.055 33.3886 104.312 33.1817 104.518 32.9748C104.724 32.7162 104.878 32.4575 104.981 32.1989C105.032 31.9403 105.084 31.6817 105.084 31.4748H108.631C108.631 31.6817 108.631 31.992 108.528 32.3024C108.425 32.6644 108.322 33.0265 108.117 33.4403C107.963 33.8024 107.706 34.2162 107.448 34.6299C107.14 35.0437 106.78 35.3541 106.317 35.6644C105.855 35.9748 105.392 36.2334 104.775 36.4403C104.158 36.6472 103.49 36.7506 102.719 36.7506C101.742 36.7506 100.817 36.5955 100.045 36.2851C99.2742 35.9748 98.6573 35.5093 98.0918 34.9403C97.5777 34.3196 97.1663 33.5955 96.9093 32.7162C96.6522 31.8368 96.498 30.8541 96.498 29.7162C96.498 28.5782 96.6523 27.5955 96.9608 26.7162C97.2692 25.8886 97.6805 25.1127 98.246 24.5437C98.8115 23.9231 99.4284 23.5093 100.2 23.1989C100.919 22.8886 101.793 22.7334 102.719 22.7334C103.13 22.7334 103.541 22.7851 104.004 22.8368C104.415 22.8886 104.827 22.992 105.289 23.1472C105.701 23.3024 106.112 23.5093 106.523 23.7679C106.883 24.0265 107.243 24.3368 107.551 24.6989C107.86 25.061 108.117 25.5265 108.271 26.0437C108.425 26.561 108.58 27.13 108.631 27.8024H105.084C105.032 27.3886 104.929 27.0782 104.827 26.8196Z" fill="white"/>
<path id="Vector_7" d="M120.559 23.0957V25.8371H116.6V36.3371H113.207V25.8371H109.197V23.0957H120.559Z" fill="white"/>
<path id="Vector_8" d="M130.069 27.8543V23.0957H133.514V36.3371H130.069V30.6474H125.031V36.3371H121.638V23.0957H125.031V27.8543H130.069Z" fill="white"/>
<path id="Vector_9" d="M139.27 31.2164L144.052 23.0957H147.65V36.3371H144.206V28.3198H144.154L139.527 36.3371H135.774V23.0957H139.219V31.2164H139.27Z" fill="white"/>
<path id="Vector_10" d="M158.296 23.0957H162.872L157.422 28.5785L163.077 36.3371H158.656L154.8 30.6991L153.412 32.1474V36.3371H149.968V23.0957H153.412V28.1129L158.296 23.0957Z" fill="white"/>
</g>
</svg>
