<svg width="40" height="41" viewBox="0 0 40 41" fill="none" xmlns="http://www.w3.org/2000/svg">
<g id="UserCirclePlus">
<path id="Vector" d="M20 25.2856C23.4518 25.2856 26.25 22.4874 26.25 19.0356C26.25 15.5839 23.4518 12.7856 20 12.7856C16.5482 12.7856 13.75 15.5839 13.75 19.0356C13.75 22.4874 16.5482 25.2856 20 25.2856Z" stroke="#309E66" stroke-width="2" stroke-linecap="round" stroke-linejoin="round"/>
<path id="Vector_2" d="M9.96875 31.437C10.9092 29.5845 12.3443 28.0287 14.1149 26.9419C15.8855 25.8551 17.9225 25.2798 20 25.2798C22.0775 25.2798 24.1145 25.8551 25.8851 26.9419C27.6557 28.0287 29.0908 29.5845 30.0312 31.437" stroke="#309E66" stroke-width="2" stroke-linecap="round" stroke-linejoin="round"/>
<path id="Vector_3" d="M27.5 9.03564H35" stroke="#309E66" stroke-width="2" stroke-linecap="round" stroke-linejoin="round"/>
<path id="Vector_4" d="M31.25 5.28564V12.7856" stroke="#309E66" stroke-width="2" stroke-linecap="round" stroke-linejoin="round"/>
<path id="Vector_5" d="M34.7925 17.7857C35.3199 20.9191 34.8378 24.1389 33.4158 26.9804C31.9938 29.8219 29.7056 32.1379 26.8815 33.5941C24.0574 35.0503 20.8436 35.5712 17.7041 35.0818C14.5646 34.5923 11.6619 33.1177 9.41514 30.8709C7.16837 28.6242 5.69379 25.7215 5.20431 22.582C4.71483 19.4425 5.23579 16.2287 6.69197 13.4046C8.14814 10.5805 10.4642 8.29222 13.3057 6.87025C16.1471 5.44828 19.367 4.96617 22.5004 5.49352" stroke="#309E66" stroke-width="2" stroke-linecap="round" stroke-linejoin="round"/>
</g>
</svg>
